<?xml version="1.0" encoding="UTF-8"?>
<svg width="480" height="480" enable-background="new 0 0 1000 1000" version="1.1" viewBox="0 0 480 480" xmlns="http://www.w3.org/2000/svg"><path d="m396.55 435.69h-313.11c-21.526 0-39.138-17.612-39.138-39.138v-313.11c0-21.526 17.612-39.138 39.138-39.138h313.11c21.526 0 39.138 17.612 39.138 39.138v313.11c0 21.526-17.612 39.138-39.138 39.138zm-313.11-352.24v313.11h313.11v-313.11z" fill="#fff"/><rect x="75.212" y="78.933" width="329.58" height="322.13" fill="#fff" stroke="#000" stroke-linejoin="bevel"/><path d="m387.74 424.67h-295.47c-20.314 0-36.934-16.62-36.934-36.934v-295.47c0-20.314 16.62-36.934 36.934-36.934h295.47c20.314 0 36.934 16.62 36.934 36.934v295.47c0 20.314-16.62 36.934-36.934 36.934zm-295.47-332.41v295.47h295.47v-295.47z"/><g display="none"><g class="" transform="matrix(.47917 0 0 .47917 117.33 117.33)" stroke-width="2.087"><path d="m247 16v23.2c-112.6 4.61-203.19 95.2-207.8 207.8h-23.2v18h23.2c4.61 112.6 95.2 203.2 207.8 207.8v23.2h18v-23.2c112.6-4.6 203.2-95.2 207.8-207.8h23.2v-18h-23.2c-4.6-112.6-95.2-203.19-207.8-207.8v-23.2zm0 41.21v22.79h18v-22.79c102.8 4.57 185.2 86.99 189.8 189.79h-22.8v18h22.8c-4.6 102.8-87 185.2-189.8 189.8v-22.8h-18v22.8c-102.8-4.6-185.22-87-189.79-189.8h22.79v-18h-22.79c4.57-102.8 86.99-185.22 189.79-189.79zm8.9 38.12c-5 0-9.5 1.1-12.9 2.9l-116.2 67.07c-7.3 4.1-7.3 10.9 0 15.2l116.2 66.9c7.2 4.3 18.5 4.3 25.7 0l115.9-66.9c7.4-4.3 7.4-11.1 0-15.2l-115.9-67.07c-3.4-1.8-8.3-2.9-12.8-2.9zm-89 62.57c6 .1 11.7 1.6 16 4.1 8 5.7 7.3 14.1-1.5 19.4-9 5.2-23.1 5.6-32.7.8-14.9-9.3-3.4-24.7 18.2-24.3zm178.6.1h2c6 .2 11.7 1.8 15.9 4.2 8.3 5.7 7.7 14.3-1.2 19.6-9.1 5.3-23.4 5.6-33 .7-15-9-4.5-24.1 16.3-24.5zm-89 0c21.4.2 31.8 15.5 16.8 24.5-9.3 6.2-25.2 6.4-35.1.6-9.8-5.8-9.6-15.3.6-20.9 4.7-2.7 11.1-4.3 17.7-4.2zm-141 41c-4.5 0-7.5 3-7.5 9.2v119.7c0 8.4 5.8 18.3 13.2 22.6l111.4 64.4c7.2 4.1 12.9.7 12.9-7.6v-119.7c0-8.3-5.7-18.4-12.9-22.5l-111.5-64.5c-2.2-1.1-4.1-1.5-5.6-1.6zm281.3 0c-1.6.1-3.7.5-5.8 1.6l-111.5 64.5c-7.2 4.1-12.9 14.2-12.9 22.5v119.7c0 8.3 5.7 11.7 12.9 7.6l111.5-64.4c7-4.3 13-14.2 13-22.6v-119.7c0-6.2-3-9.2-7.2-9.2zm-185 65.5c11.2.4 24.7 17.3 24.5 31.5.4 11-7.4 15.5-17.2 9.9-9.7-5.7-17.5-19.4-16.9-29.8 0-6.8 3.2-11.2 8.5-11.6zm130.9 21.8h1.1c5.2.4 8.5 4.8 8.5 11.5-.1 10.5-7.7 23.3-17.1 28.8-9.5 5.5-17.1 1.5-17.2-8.9-.1-14.2 13.5-31.3 24.7-31.4zm-216.9 22.5c11.4-.5 25.5 16.8 25.5 31.3.4 11.1-7.4 15.6-17.2 10.1-9.7-5.7-17.5-19.3-17-29.8 0-6.9 3.3-11.3 8.7-11.6z" stroke-width="5.9627"/></g><g fill="none" stroke="#000" stroke-width="20"><rect x="135" y="140" width="210" height="65" display="inline"/><rect x="240" y="140" width="105" height="195" display="inline"/><rect x="135" y="205" width="210" height="65" display="inline"/><rect x="135" y="270" width="210" height="65" display="inline"/></g><g stroke="#000"><path d="m240.12 125.5a114.5 114.5 0 01114.38 114.62 114.5 114.5 0 01-114.62 114.38 114.5 114.5 0 01-114.38-114.62 114.5 114.5 0 01114.62-114.38" stroke-linejoin="bevel"/><path d="m240.1 150.3a89.701 89.701 0 0189.605 89.796 89.701 89.701 0 01-89.795 89.606 89.701 89.701 0 01-89.607-89.794 89.701 89.701 0 0189.793-89.608" fill="#fff" stroke-linejoin="bevel" stroke-width=".86175"/><g transform="scale(.99912 1.0009)" display="inline" stroke-width="1px" aria-label="#"><path d="m204.76 271.41h-11.688v-18.906h15.469l5.1562-25.352h-20.625v-18.992h24.492l6.7891-33.516h19.25l-6.7891 33.516h18.992l6.6172-33.516h19.938l-6.875 33.516h11.859v18.992h-15.727l-5.1562 25.352h20.883v18.906h-24.75l-6.7891 33.516h-19.164l6.6172-33.516h-19.078l-6.7891 33.516h-19.422zm28.273-44.258-5.0703 25.352h19.078l4.9844-25.352z"/></g><path d="m340 100v25h-25v15h25v25h15v-25h25v-15h-25v-25z" stroke-width="1px"/></g></g><g transform="matrix(1.3703 0 0 1.3703 -88.869 -88.869)" display="none" stroke-width=".72977"><g transform="matrix(2.5814 -2.5814 2.5568 2.5568 -792.77 -44.174)" display="inline" stroke="#000"><path d="m145 225.03-15 14.971v35h30v-35z" stroke-width=".20086px"/><path d="m145 232.75a2.25 2.25 0 012.2476 2.2524 2.25 2.25 0 01-2.2524 2.2476 2.25 2.25 0 01-2.2476-2.2523 2.25 2.25 0 012.2523-2.2477" fill="#fff" stroke-linejoin="bevel" stroke-width=".20086"/></g></g><g display="none"><path d="m125.94 154.25h228.12l-114.06 171.11z" display="inline" stroke="#000" stroke-width="1px"/></g><g transform="matrix(1.1164 0 0 1.1164 -27.947 -27.947)" display="none" stroke-width=".8957"><g transform="matrix(.40173 0 0 .40173 39.137 39.137)" stroke="#000" stroke-linejoin="bevel"><path d="m500.27 244.71a255.29 255.29 0 01255.02 255.56 255.29 255.29 0 01-255.56 255.02 255.29 255.29 0 01-255.03-255.56 255.29 255.29 0 01255.56-255.03" stroke-width="2.2296"/><path d="m500.21 300a200 200 0 01199.79 200.21 200 200 0 01-200.21 199.79 200 200 0 01-199.79-200.21 200 200 0 01200.21-199.79" fill="#fff" stroke-width="1.9214"/><path d="m500.15 360a140 140 0 01139.85 140.15 140 140 0 01-140.15 139.85 140 140 0 01-139.85-140.15 140 140 0 01140.14-139.85" stroke-width="1.9214"/></g></g><g display="none"><path d="m146.32 243.21 82.272 47.5 90-155.88 35.08 20.348-109.72 190-117.63-67.323z" stroke="#000" stroke-width="1px"/></g><g><g transform="scale(.99912 1.0009)" stroke="#000" stroke-width="1px" aria-label="##"><path d="m143.03 276.21h-13.458v-21.771h17.813l5.9375-29.193h-23.75v-21.87h28.203l7.8177-38.594h22.167l-7.8177 38.594h21.87l7.6198-38.594h22.958l-7.9167 38.594h13.656v21.87h-18.109l-5.9375 29.193h24.047v21.771h-28.5l-7.8177 38.594h-22.068l7.6198-38.594h-21.969l-7.8177 38.594h-22.365zm32.557-50.964-5.8386 29.193h21.969l5.7396-29.193z"/><path d="m255.75 276.21h-13.458v-21.771h17.813l5.9375-29.193h-23.75v-21.87h28.203l7.8177-38.594h22.167l-7.8177 38.594h21.87l7.6198-38.594h22.958l-7.9167 38.594h13.656v21.87h-18.109l-5.9375 29.193h24.047v21.771h-28.5l-7.8177 38.594h-22.068l7.6198-38.594h-21.969l-7.8177 38.594h-22.365zm32.557-50.964-5.8386 29.193h21.969l5.7396-29.193z"/></g></g><g transform="matrix(1.0234 0 0 1.0234 -5.622 -5.622)" display="none" stroke="#000" stroke-linejoin="bevel" stroke-width=".97711"><rect x="127.63" y="137.4" width="224.74" height="43.97"/><rect x="127.63" y="215.57" width="224.74" height="43.97"/><rect x="127.63" y="293.74" width="224.74" height="43.97"/></g><g display="none"><g transform="scale(.99912 1.0009)" stroke="#000" stroke-width="1px" aria-label="Aa"><path d="m260.59 310.26h-31.865l-12.667-32.953h-57.99l-11.974 32.953h-31.073l56.505-145.07h30.974zm-53.932-57.396-19.99-53.833-19.594 53.833z"/><path d="m296.71 237.23-25.234-4.5521q4.2552-15.24 14.646-22.563 10.391-7.3229 30.875-7.3229 18.604 0 27.708 4.4531 9.1042 4.3542 12.766 11.182 3.7604 6.7292 3.7604 24.839l-.29688 32.458q0 13.854 1.2865 20.484 1.3854 6.5313 5.0469 14.052h-27.51q-1.0885-2.7708-2.6719-8.2136-.69271-2.474-.98958-3.2656-7.125 6.9271-15.24 10.391-8.1146 3.4635-17.318 3.4635-16.229 0-25.63-8.8073-9.3021-8.8073-9.3021-22.266 0-8.9063 4.2552-15.833 4.2552-7.0261 11.875-10.688 7.7188-3.7604 22.167-6.5313 19.495-3.6615 27.016-6.8281v-2.7708q0-8.0156-3.9583-11.38-3.9583-3.4635-14.943-3.4635-7.4219 0-11.578 2.9688-4.1562 2.8698-6.7292 10.193zm37.208 22.563q-5.3438 1.7812-16.922 4.2552-11.578 2.474-15.141 4.849-5.4427 3.8594-5.4427 9.7969 0 5.8386 4.3542 10.094 4.3542 4.2552 11.083 4.2552 7.5208 0 14.349-4.9479 5.0469-3.7604 6.6302-9.2031 1.0885-3.5625 1.0885-13.557z"/></g><g transform="matrix(3.5372 -3.5372 3.5035 3.5035 -1175.2 -149.4)" display="inline" stroke="#000"><path d="m145 225.03-15 14.971v35h30v-35z" stroke-width=".20086px"/><path d="m145 232.75a2.25 2.25 0 012.2476 2.2524 2.25 2.25 0 01-2.2524 2.2476 2.25 2.25 0 01-2.2476-2.2523 2.25 2.25 0 012.2523-2.2477" fill="#fff" stroke-linejoin="bevel" stroke-width=".20086"/></g><g class="" transform="matrix(.26794 0 0 .26794 171.41 171.41)" stroke-width="3.7322"><path d="m248 20.27-175.67 112.33 175.67-3.823zm16 0v108.5l175.67 3.823zm37.844 55.066c4.647-.112 9.772 1.762 13.576 3.824 6.082 3.54 8.205 7.248 15.074 4.22 10.698.844 22.297 5.794 27.568 15.68 4.715 4.574 1.555 12.61-5.167 12.65-9.72.06-19.74-6.075-14.563-8.314 4.65-2.01 14.634.886 10.014-5.56-3.632-4.435-11.085-7.78-16.352-5.897-1.59 6.81-9.382 3.996-11.955-.643-2.357-5.815-9.154-8.18-15.085-7.916-6.06 2.703 1.67 8.784 5.344 9.936 7.904 2.124.217 7.454-4.062 5.07-4.28-2.386-14.993-9.645-13.523-18.34 2.188-3.336 5.514-4.623 9.13-4.71zm-94.987.293c5.534.522 12.383 3.06 10.202 9.975-4.282 6.93-9.778 13.057-18.062 14.782-6.514 3.368-14.885 4.397-21.646 1.883-3.604-2.246-13.427-9.325-14.81-3.354-.666 6.2 3.028 15.352-6.106 15.816l-5.02 2.006v-24.46c9.842-3.876 21.037-4.516 30.266 1.335 7.973 4.16 19.38 1.503 24.252-5.783 1.33-6.494-8.162-4.57-12.24-3.336-2.687-8.26 7.87-7.47 13.163-8.865zm35.012 69.282-186.48 4.06 71.23 192.93zm28.26 0 115.25 196.99 71.23-192.93zm-14.13 7.53-117.08 200.11h234.15zm122.4 18.132c3.895.046 7.914 1.155 10.942 2.96 13.828 8.237 21.455 26.145 22.056 42.956.084 5.698-1.618 13.246-5.966 17.016-2.85 1.984-6.025 3.198-9.244 4.432-16.824-1.18-23.932-19.237-29.727-32.625-3.405-9.887-5.777-24.05 1.74-31.32 2.533-2.45 6.305-3.465 10.2-3.42zm-227.63 7.707c6.525.26 12.91 4.953 14.844 11.32 2.083 3.974-.562 11.445-4.857 12.09-4.9.734-3.757-9.317-9.344-11.565-5.88-3.69-11.495 4.34-14.166 8.707-.33.96-.695 1.918-.896 2.914 10.397-4.057 20.312 7.093 20.304 16.953-.312 11.67-7.843 24.777-19.705 28.134h-5.564c-12.7-.706-18.296-15.853-14.163-26.63 4.42-15.785 10.772-33.904 27.134-40.6 2.048-1.002 4.24-1.41 6.413-1.323zm228.72 2.95c-7.066-.148-4.38 9.958-3.338 14.456 1.55 10.1 6.458 19.766 13.15 27.293 1.7 1.414 3.663 2.13 5.764 2.727 6.865-1.254 4.47-12.833 3.72-16.535-4.707-10.907-7.057-23.284-19.296-27.942zm-327.5 4.75v173.27l61.86-5.703zm408 0-61.86 167.56 61.86 5.703zm-117.88.698 28.478 63.492-10.014 4.447-20.027-43.365c-6.02 3.062-12.98 8.95-14.56-1.303-1.344-3.955 8.546-5.1 8.15-11.993-.393-6.892 2.154-12.126 7.972-11.28zm-205.85 24.3c-2.302.156-4.453 1.392-6.148 3.133-2.417 5.077-4.1 10.268-2.695 15.913 1.668 8.807 13.515 6.41 15.576-.85 2.663-4.976 3.863-11.65-.49-15.696-1.722-1.623-3.514-2.38-5.248-2.5-.335-.024-.666-.023-.995 0zm317.48 33.65c3.69.262 5.783 6.924 4.74 11.038-.137 18.62 1.144 39.21-9.677 55.322-.96 1.253-2.258 1.946-3.675 2.56-5.81-4.17-3.01-11.36 1.114-15.566 1.01 7.297 5.573-2.882 6.676-5.56 1.31-3.18 3.52-17.75-.983-10.27.69 4.05-6.805 13.154-9.38 8.118-4.937-14.41-.017-30.488 7.025-43.436 1.526-1.667 2.933-2.292 4.162-2.205zm-393.82.845c.588.086 1.344 1.032 2.478 3.584v61.156c-7.297-7.04-3.567-17.42-4.45-26.402-.814-7.606 1.655-16.264-1.274-23.193-4.622-1.674-5.797-17.045-3.176-12.672 4.407 4.768 4.657-2.73 6.422-2.472zm166.01 4.34c4.463.077 8.93 1.227 12.8 3.32 8.1 4.427 13.744 14.375 10.792 23.568-2.265 9.636-10.61 16.243-19.195 20.208-4.058 2.644-9.45 4.618-11.283 9.46-1.196 2.994 25.396 1.62 30.267 1.62.47 4.003 1.52 10.68-3.814 11.725-14.52-1.25-29.88-.606-45.14-.606.437-11.176 7.425-21.35 17.023-26.808 6.9-4.875 15.435-9.283 18.1-17.927 1.763-4.44-.56-9.28-4.632-11.47-4.154-2.874-10.947-2.34-13.178 2.7-1.992 3.82-4.38 9.075-8.657 9.604-2.893.358-8.99.475-7.263-4.873 1.46-5.63 3.413-11.567 8.263-15.213 4.45-3.726 10.18-5.403 15.918-5.306zm58.565.517c2.548.043 5.088.494 7.46 1.352 6.835 2.2 12.034 7.93 14.296 14.656 6.14 14.67 5.577 33.025-4.407 45.89-4.434 4.726-10.147 9.084-16.93 9.104-12.504-.152-22.452-11.172-24.83-22.865-3.145-13.39-1.786-28.618 6.913-39.733 3.686-5.435 10-8.212 16.406-8.398.364-.01.728-.012 1.092-.006zm166.39 5.768c-.997-.037-2.02.973-2.777 3.683-1.645 5.895-3.323 13.392-.755 19.298 5.1-1.992 5.47-9.617 6.676-14.437 1.127-3.304-.95-8.46-3.144-8.542zm-165.83 5.593c-3.386-.167-6.824 2.62-8.324 5.64-2.258 4.143-2.065 9.04-2.812 13.594-.813 9.084-.33 19.23 5.457 26.707l2.207 1.472c4.928 1.78 9.694-2.16 11.07-6.74 1.962-6.234 2.34-12.9 2.43-19.407-.235-7.035-1.47-14.922-6.73-20.012-1.044-.813-2.17-1.196-3.298-1.252zm148.95 5.158v61.156l-4.452 6.672v-42.254c-4.61 7.453-9.028 9.044-6.066-.912 6.054-7.15 4.81-17.41 10.518-24.662zm-359.37 1.11c.02.07.043.14.063.208 4.513-.497 7.276 7.277 9.104 10.865.8 3.573 5.12 17.77 2.032 14.798-.273-.453-.53-.914-.795-1.37l1.837 3.3c-4.598-3.657-6.375-10.487-4.444-8.024-1.558-3.014-2.96-6.095-4.218-9.24-.06 1.18-.727 2.115-2.465 2.793-1.287 3.49-1.265 7.08-.67 10.645.2-1.67 1.175-2.384 3.385-.754 7.842 12.624 12.176 29.107 7.298 43.498l-2.224 1.11c-10.357-5.83-11.404-19.436-13.427-30.003-1.555-12.29-.788-24.71 2.3-36.71.807-.547 1.567-.828 2.284-.907-.02-.07-.042-.137-.06-.207zm.06.208c.114.417.237.826.368 1.225-.12-.408-.25-.813-.365-1.224zm2.052 31.07c-4.06 4.626-2.26 12.79-.377 18.4 1.108 5.507 6.916 10.14 6.056 1.52-.05-5.63.17-11.725-3-16.39-.96-.537-1.907-1.898-2.678-3.53zm66.396 69.317 112.85 123.18 112.85-123.18zm-21.394.33-53.797 4.96 64.223 41.065c-2.556-2.703-4.856-5.71-7.118-8.763-5.132-6.95-10.468-13.657-18.88-16.672-8.736-6.442-4.18-5.276 2.9-2.537-.948-1.854-.725-2.61.123-2.668 2.17-.153 8.43 4.226 9.74 6.37l24.706 31.606 65.15 41.656zm268.48 0-42.472 46.36c6.404-3.148 11.38-8.538 17.056-12.493 2.396-1.346 3.72-1.896 4.295-1.89 2.055.017-5.43 7.116-7.682 10.333-9.42 9.813-16.066 23.033-28.668 29.114l18.914-24.46c-2.32 1.26-5.94 3.19-8.21 4.085l-40.28 43.968 74.468-47.615c5.48-6.718 1.903-5.537-5.64-.896l-11.438 6.014c11.46-13.746 26.855-23.568 40.053-35.582 3.162-1.492 9.503-5.663 10.986-5.738.777-.04.22 1.045-2.824 4.228l-12.613 15.965c10.01-7.533.884 3.926-4.45 5.56-.695 1.01-1.44 1.95-2.212 2.862l54.512-34.856zm-158.26 16.644c1.358.01 2.71.125 3.998.295v43.365h-13.35v-30.02c-5.04-1.378-10.417 1.722-15.34-.27-3.758-2.94 1.01-6.846 4.524-5.89 3.278-.126 7.556.197 9.324-3.234 2.635-3.34 6.77-4.274 10.845-4.246zm33.048.81c.464-.02.963.037 1.497.186 3.147.81 6.466.245 9.695.413h25.402c1.503 2.992.752 7.75-3.305 7.855-3.893.51-7.81-.382-11.69.212-4.698.146-9.753-1.773-14.198.404-3.122 1.66-4.165 8.505.988 6.076 3.366-1.11 6.912-1.807 10.408-.89 6.984 1.103 14.966 2.89 19.125 9.19 2.076 3.156 2.672 7.337.633 10.67-3.602 6.528-11.534 8.407-18.295 9.75-2.337.443-4.66 1.404-7.03 1.21-7.245-.593-15.603-1.083-20.603-7.144-2.662-2.494-2.703-7.097 1.903-6.66 3.57-.142 8.657-.4 10.322 3.505 3.247 3.66 8.837 2.94 13.127 1.98 3.588-.483 7.53-2.548 7.584-6.673.59-4.21-3.078-7.18-6.844-7.8-5.818-2.365-11.57 1.405-17.37 1.827-3.463 1.046-9.578.48-8.936-4.465.76-4.188 2.663-8.108 2.71-12.46.09-3.005 1.634-7.03 4.877-7.184zm133.47 4.975c-.21-.248-6.99 5.744-9.92 8.08l-15.75 13.118c8.59-4.363 16.472-9.61 22.275-17.448 2.553-2.6 3.476-3.652 3.394-3.75zm-247.03 14.16c2.39-.02 7.543 4.65 9.45 7.06l26.11 31.11c-7.722-2.182-13.29-7.19-17.653-13.777-6.43-7.316-11.282-16.606-21.213-19.54-8.943-5.002-5.18-6.42 2.133-2.264-.273-1.858.24-2.582 1.174-2.59z" fill="#fff" stroke-width="9.0638"/></g></g></svg>
