<?xml version="1.0" encoding="UTF-8" standalone="no"?>
<svg
   width="480"
   height="480"
   enable-background="new 0 0 1000 1000"
   version="1.1"
   viewBox="0 0 480 480"
   id="svg29"
   sodipodi:docname="sb_property_created.svg"
   inkscape:version="1.3.2 (091e20e, 2023-11-25, custom)"
   xmlns:inkscape="http://www.inkscape.org/namespaces/inkscape"
   xmlns:sodipodi="http://sodipodi.sourceforge.net/DTD/sodipodi-0.dtd"
   xmlns="http://www.w3.org/2000/svg"
   xmlns:svg="http://www.w3.org/2000/svg">
  <defs
     id="defs29" />
  <sodipodi:namedview
     id="namedview29"
     pagecolor="#ffffff"
     bordercolor="#000000"
     borderopacity="0.25"
     inkscape:showpageshadow="2"
     inkscape:pageopacity="0.0"
     inkscape:pagecheckerboard="0"
     inkscape:deskcolor="#d1d1d1"
     inkscape:zoom="1.69375"
     inkscape:cx="240"
     inkscape:cy="239.40959"
     inkscape:window-width="1920"
     inkscape:window-height="1009"
     inkscape:window-x="-8"
     inkscape:window-y="346"
     inkscape:window-maximized="1"
     inkscape:current-layer="svg29" />
  <path
     d="M 396.248,435.386 H 83.138 C 61.612,435.386 44,417.774 44,396.248 V 83.138 C 44,61.612 61.612,44 83.138,44 h 313.11 c 21.526,0 39.138,17.612 39.138,39.138 v 313.11 c 0,21.526 -17.612,39.138 -39.138,39.138 z M 83.138,83.146 v 313.11 h 313.11 V 83.146 Z"
     fill="#ffffff"
     id="path1" />
  <rect
     x="74.909996"
     y="78.628998"
     width="329.57999"
     height="322.13"
     fill="#ffffff"
     stroke="#000000"
     stroke-linejoin="bevel"
     id="rect1" />
  <path
     d="M 387.438,424.366 H 91.968 c -20.314,0 -36.934,-16.62 -36.934,-36.934 V 91.962 c 0,-20.314 16.62,-36.934 36.934,-36.934 h 295.47 c 20.314,0 36.934,16.62 36.934,36.934 v 295.47 c 0,20.314 -16.62,36.934 -36.934,36.934 z M 91.968,91.956 v 295.47 h 295.47 V 91.956 Z"
     id="path2" />
  <text
     xml:space="preserve"
     style="font-style:normal;font-variant:normal;font-weight:normal;font-stretch:normal;font-size:366.71px;font-family:'MS PGothic';-inkscape-font-specification:'MS PGothic, Normal';font-variant-ligatures:normal;font-variant-caps:normal;font-variant-numeric:normal;font-variant-east-asian:normal;fill:#000000;stroke:#000000;stroke-width:12;stroke-linecap:round;stroke-dasharray:none"
     x="147.62994"
     y="368.2984"
     id="text3"
     transform="scale(1.0016534,0.99834934)"><tspan
       sodipodi:role="line"
       id="tspan3"
       x="147.62994"
       y="368.2984"
       style="stroke-width:12">*</tspan></text>
</svg>
