<?xml version="1.0" encoding="UTF-8"?>
<svg width="480" height="480" enable-background="new 0 0 1000 1000" version="1.1" viewBox="0 0 480 480" xmlns="http://www.w3.org/2000/svg"><path d="m396.55 435.69h-313.11c-21.526 0-39.138-17.612-39.138-39.138v-313.11c0-21.526 17.612-39.138 39.138-39.138h313.11c21.526 0 39.138 17.612 39.138 39.138v313.11c0 21.526-17.612 39.138-39.138 39.138zm-313.11-352.24v313.11h313.11v-313.11z" fill="#fff"/><rect x="75.212" y="78.933" width="329.58" height="322.13" fill="#fff" stroke="#000" stroke-linejoin="bevel"/><path d="m387.74 424.67h-295.47c-20.314 0-36.934-16.62-36.934-36.934v-295.47c0-20.314 16.62-36.934 36.934-36.934h295.47c20.314 0 36.934 16.62 36.934 36.934v295.47c0 20.314-16.62 36.934-36.934 36.934zm-295.47-332.41v295.47h295.47v-295.47z"/><g><g display="none"><g><path d="m239.96 174.87c-2.027 0-3.8514.44595-5.2297 1.1757l-47.108 27.191c-2.9594 1.6622-2.9594 4.4189 0 6.1622l47.108 27.122c2.9189 1.7432 7.5 1.7432 10.419 0l46.986-27.122c3-1.7432 3-4.5 0-6.1622l-46.986-27.191c-1.3784-.72973-3.3649-1.1757-5.1892-1.1757zm-36.081 25.366c2.4324.0405 4.7432.64864 6.4865 1.6622 3.2432 2.3108 2.9595 5.7162-.60811 7.8649-3.6486 2.1081-9.3649 2.2703-13.257.32433-6.0405-3.7703-1.3784-10.014 7.3784-9.8514zm72.405.0405h.81082c2.4324.0811 4.7432.72973 6.446 1.7027 3.3649 2.3108 3.1216 5.7973-.48649 7.946-3.6892 2.1486-9.4865 2.2703-13.378.28379-6.0811-3.6486-1.8243-9.7703 6.6081-9.9324zm-36.081 0c8.6757.0811 12.892 6.2838 6.8108 9.9324-3.7703 2.5135-10.216 2.5946-14.23.24324-3.973-2.3514-3.8919-6.2027.24324-8.473 1.9054-1.0946 4.5-1.7432 7.1757-1.7027zm-57.162 16.622c-1.8243 0-3.0405 1.2162-3.0405 3.7297v48.527c0 3.4054 2.3514 7.4189 5.3514 9.1622l45.162 26.108c2.9189 1.6622 5.2297.28378 5.2297-3.0811v-48.527c0-3.3649-2.3108-7.4595-5.2297-9.1216l-45.203-26.149c-.89189-.44594-1.6622-.6081-2.2703-.64864zm114.04 0c-.64864.0405-1.5.2027-2.3514.64864l-45.203 26.149c-2.9189 1.6622-5.2297 5.7568-5.2297 9.1216v48.527c0 3.3649 2.3108 4.7432 5.2297 3.0811l45.203-26.108c2.8378-1.7432 5.2703-5.7567 5.2703-9.1622v-48.527c0-2.5135-1.2162-3.7297-2.9189-3.7297zm-75 26.554c4.5405.16217 10.014 7.0135 9.9324 12.77.16217 4.4595-3 6.2838-6.973 4.0135-3.9324-2.3108-7.0946-7.8649-6.8514-12.081 0-2.7568 1.2973-4.5405 3.4459-4.7027zm53.068 8.8378h.44594c2.1081.16215 3.4459 1.9459 3.4459 4.6622-.0405 4.2568-3.1216 9.446-6.9324 11.676-3.8514 2.2297-6.9324.60811-6.973-3.6081-.0405-5.7568 5.473-12.689 10.014-12.73zm-87.932 9.1216c4.6216-.20271 10.338 6.8108 10.338 12.689.16216 4.5-3 6.3243-6.973 4.0946-3.9324-2.3108-7.0946-7.8243-6.8919-12.081 0-2.7973 1.3378-4.5811 3.527-4.7027z" stroke-width="2.8572"/><path d="m239.62 125.62a114.5 114.5 0 00-114.62 114.38 114.5 114.5 0 00114.38 114.62 114.5 114.5 0 00114.62-114.38 114.5 114.5 0 00-114.38-114.62zm-.0254 24.799h.004a89.701 89.701 0 0189.605 89.795 89.701 89.701 0 01-89.795 89.607 89.701 89.701 0 01-89.608-89.795 89.701 89.701 0 0189.793-89.607z" stroke="#000" stroke-linejoin="bevel"/><rect x="230" y="110" width="20" height="55"/><rect x="230" y="315" width="20" height="55"/></g><g transform="rotate(-90,240,240)"><rect x="230" y="110" width="20" height="55"/><rect x="230" y="315" width="20" height="55"/></g><g fill="none" stroke="#000" stroke-width="20"><rect x="135" y="140" width="210" height="65" display="inline"/><rect x="240" y="140" width="105" height="195" display="inline"/><rect x="135" y="205" width="210" height="65" display="inline"/><rect x="135" y="270" width="210" height="65" display="inline"/></g><g stroke="#000"><path d="m240.12 125.5a114.5 114.5 0 01114.38 114.62 114.5 114.5 0 01-114.62 114.38 114.5 114.5 0 01-114.38-114.62 114.5 114.5 0 01114.62-114.38" stroke-linejoin="bevel"/><path d="m240.1 150.3a89.701 89.701 0 0189.605 89.796 89.701 89.701 0 01-89.795 89.606 89.701 89.701 0 01-89.607-89.794 89.701 89.701 0 0189.793-89.608" fill="#fff" stroke-linejoin="bevel" stroke-width=".86175"/><g transform="scale(.99912 1.0009)" display="inline" stroke-width="1px" aria-label="#"><path d="m204.76 271.41h-11.688v-18.906h15.469l5.1562-25.352h-20.625v-18.992h24.492l6.7891-33.516h19.25l-6.7891 33.516h18.992l6.6172-33.516h19.938l-6.875 33.516h11.859v18.992h-15.727l-5.1562 25.352h20.883v18.906h-24.75l-6.7891 33.516h-19.164l6.6172-33.516h-19.078l-6.7891 33.516h-19.422zm28.273-44.258-5.0703 25.352h19.078l4.9844-25.352z"/></g><path d="m340 100v25h-25v15h25v25h15v-25h25v-15h-25v-25z" stroke-width="1px"/></g></g><g transform="matrix(1.3703 0 0 1.3703 -88.869 -88.869)" display="none" stroke-width=".72977"><g transform="matrix(2.5814 -2.5814 2.5568 2.5568 -792.77 -44.174)" display="inline" stroke="#000"><path d="m145 225.03-15 14.971v35h30v-35z" stroke-width=".20086px"/><path d="m145 232.29a2.7058 2.7058 0 012.7029 2.7086 2.7058 2.7058 0 01-2.7086 2.7029 2.7058 2.7058 0 01-2.703-2.7086 2.7058 2.7058 0 012.7086-2.703" fill="#fff" stroke-linejoin="bevel" stroke-width=".20086"/></g></g><g display="none"><path d="m125.94 154.25h228.12l-114.06 171.11z" display="inline" stroke="#000" stroke-width="1px"/></g><g transform="matrix(1.1164 0 0 1.1164 -27.947 -27.947)" display="none" stroke-width=".8957"><g transform="matrix(.40173 0 0 .40173 39.137 39.137)" stroke="#000" stroke-linejoin="bevel"><path d="m500.27 244.71a255.29 255.29 0 01255.02 255.56 255.29 255.29 0 01-255.56 255.02 255.29 255.29 0 01-255.03-255.56 255.29 255.29 0 01255.56-255.03" stroke-width="2.2296"/><path d="m500.21 300a200 200 0 01199.79 200.21 200 200 0 01-200.21 199.79 200 200 0 01-199.79-200.21 200 200 0 01200.21-199.79" fill="#fff" stroke-width="1.9214"/><path d="m500.15 360a140 140 0 01139.85 140.15 140 140 0 01-140.15 139.85 140 140 0 01-139.85-140.15 140 140 0 01140.14-139.85" stroke-width="1.9214"/></g></g><g display="none" stroke="#000" stroke-width="1px"><path d="m146.32 243.21 82.272 47.5 90-155.88 35.08 20.348-109.72 190-117.63-67.323z"/><g transform="scale(.99912 1.0009)" aria-label="##"><path d="m143.03 276.21h-13.458v-21.771h17.813l5.9375-29.193h-23.75v-21.87h28.203l7.8177-38.594h22.167l-7.8177 38.594h21.87l7.6198-38.594h22.958l-7.9167 38.594h13.656v21.87h-18.109l-5.9375 29.193h24.047v21.771h-28.5l-7.8177 38.594h-22.068l7.6198-38.594h-21.969l-7.8177 38.594h-22.365zm32.557-50.964-5.8386 29.193h21.969l5.7396-29.193z"/><path d="m255.75 276.21h-13.458v-21.771h17.813l5.9375-29.193h-23.75v-21.87h28.203l7.8177-38.594h22.167l-7.8177 38.594h21.87l7.6198-38.594h22.958l-7.9167 38.594h13.656v21.87h-18.109l-5.9375 29.193h24.047v21.771h-28.5l-7.8177 38.594h-22.068l7.6198-38.594h-21.969l-7.8177 38.594h-22.365zm32.557-50.964-5.8386 29.193h21.969l5.7396-29.193z"/></g></g><g transform="matrix(1.0234 0 0 1.0234 -5.622 -5.622)" display="none" stroke="#000" stroke-linejoin="bevel" stroke-width=".97711"><rect x="127.63" y="137.4" width="224.74" height="43.97"/><rect x="127.63" y="215.57" width="224.74" height="43.97"/><rect x="127.63" y="293.74" width="224.74" height="43.97"/></g><g display="none"><g transform="scale(.99912 1.0009)" stroke="#000" stroke-width="1px" aria-label="Aa"><path d="m260.59 310.26h-31.865l-12.667-32.953h-57.99l-11.974 32.953h-31.073l56.505-145.07h30.974zm-53.932-57.396-19.99-53.833-19.594 53.833z"/><path d="m296.71 237.23-25.234-4.5521q4.2552-15.24 14.646-22.563 10.391-7.3229 30.875-7.3229 18.604 0 27.708 4.4531 9.1042 4.3542 12.766 11.182 3.7604 6.7292 3.7604 24.839l-.29688 32.458q0 13.854 1.2865 20.484 1.3854 6.5313 5.0469 14.052h-27.51q-1.0885-2.7708-2.6719-8.2136-.69271-2.474-.98958-3.2656-7.125 6.9271-15.24 10.391-8.1146 3.4635-17.318 3.4635-16.229 0-25.63-8.8073-9.3021-8.8073-9.3021-22.266 0-8.9063 4.2552-15.833 4.2552-7.0261 11.875-10.688 7.7188-3.7604 22.167-6.5313 19.495-3.6615 27.016-6.8281v-2.7708q0-8.0156-3.9583-11.38-3.9583-3.4635-14.943-3.4635-7.4219 0-11.578 2.9688-4.1562 2.8698-6.7292 10.193zm37.208 22.563q-5.3438 1.7812-16.922 4.2552-11.578 2.474-15.141 4.849-5.4427 3.8594-5.4427 9.7969 0 5.8386 4.3542 10.094 4.3542 4.2552 11.083 4.2552 7.5208 0 14.349-4.9479 5.0469-3.7604 6.6302-9.2031 1.0885-3.5625 1.0885-13.557z"/></g></g><path d="m180.14 221.61-47.414 70.028c-1.3836 2.2461.0449 5.166 2.6638 5.4534l93.553 9.9141zm-44.625 45.088 33.821-54.961-34.428-20.655c-1.1994-.71875-2.7222.14374-2.7222 1.5408v73.136c0 1.8103 2.3763 2.4841 3.3287.93885zm4.8695 48.591 87.327 39.378c2.3808 1.1006 5.0986-.64238 5.0986-3.2613v-29.5l-91.437-10.017c-1.999-.22461-2.7986 2.5111-.98826 3.4005zm36.485-115.8 35.906-64.21c1.9496-3.1714-1.6127-6.8505-4.8425-5.0042l-67.746 44.297c-1.1096.72772-1.0736 2.3629.0584 3.0457zm63.128 4.573h49.059l-42.936-75.638c-1.406-2.282-3.7644-3.423-6.1228-3.423-2.3584 0-4.7167 1.141-6.1228 3.423l-42.936 75.638zm105.09-12.982-34.428 20.659 33.821 54.961c.94783 1.5453 3.3287.87146 3.3287-.94335v-73.136c0-1.397-1.5228-2.2595-2.7222-1.5408zm-41.961 8.4093 36.624-21.877c1.1365-.6828 1.168-2.3179.0584-3.0457l-67.746-44.292c-3.2298-1.8463-6.7921 1.8328-4.8425 5.0042zm35.497 112.4-91.437 10.013v29.5c0 2.6234 2.7177 4.3619 5.0986 3.2613l87.327-39.378c1.8103-.88495 1.0107-3.6207-.98827-3.396zm-38.767-90.278-48.798 85.395 93.553-9.9141c2.6189-.29198 4.0474-3.2074 2.6638-5.4534zm-59.858-3.1714h-45.114l45.114 78.949 45.114-78.949z"/></g></svg>
