<?xml version="1.0" encoding="UTF-8" standalone="no"?>
<svg
   role="img"
   width="1000mm"
   height="1000mm"
   viewBox="0 0 1000 1000"
   style="max-width:1.6em; height: auto;"
   version="1.1"
   id="svg289"
   sodipodi:docname="lowercase.svg"
   inkscape:version="1.2 (dc2aedaf03, 2022-05-15)"
   xmlns:inkscape="http://www.inkscape.org/namespaces/inkscape"
   xmlns:sodipodi="http://sodipodi.sourceforge.net/DTD/sodipodi-0.dtd"
   xmlns="http://www.w3.org/2000/svg"
   xmlns:svg="http://www.w3.org/2000/svg">
  <defs
     id="defs293" />
  <sodipodi:namedview
     id="namedview291"
     pagecolor="#ffffff"
     bordercolor="#666666"
     borderopacity="1.0"
     inkscape:showpageshadow="2"
     inkscape:pageopacity="0.0"
     inkscape:pagecheckerboard="0"
     inkscape:deskcolor="#d1d1d1"
     inkscape:document-units="mm"
     showgrid="false"
     inkscape:zoom="0.20399375"
     inkscape:cx="1416.7101"
     inkscape:cy="1894.6659"
     inkscape:window-width="2048"
     inkscape:window-height="1099"
     inkscape:window-x="1912"
     inkscape:window-y="-8"
     inkscape:window-maximized="1"
     inkscape:current-layer="svg289" />
  <g
     aria-label="aa"
     id="text12343"
     style="font-weight:600;font-size:3.88056px;line-height:145%;font-family:Probeta;-inkscape-font-specification:'Probeta, Semi-Bold';letter-spacing:0px;word-spacing:0px;fill:#000000"
     transform="matrix(352.02629,0,0,352.02629,-105.41185,-105.41188)">
    <path
       d="m 0.33637217,1.9797892 q 0,-0.1008946 0.0155222,-0.194028 0.0194028,-0.093133 0.10089456,-0.1668641 0.0853723,-0.073731 0.25611695,-0.1164168 0.17074464,-0.046567 0.47730892,-0.054328 0,-0.1358196 -0.011642,-0.194028 -0.011642,-0.058208 -0.038806,-0.097014 -0.019403,-0.031044 -0.054328,-0.034925 -0.034925,-0.00776 -0.10089463,-0.00776 H 0.56920576 V 0.76517391 h 0.41133935 q 0.13970019,0 0.25223639,0.0155222 0.1164168,0.0155222 0.194028,0.10089456 0.081492,0.0814917 0.1241779,0.26387813 0.042686,0.1823863 0.042686,0.519995 V 2.6744094 H 1.2327815 L 1.201737,2.5657537 q -0.077611,0.077611 -0.1629835,0.093133 -0.0814917,0.015522 -0.21731134,0.015522 -0.10477512,0 -0.194028,-0.023283 -0.0892529,-0.023283 -0.15522239,-0.081492 -0.062089,-0.058208 -0.10089456,-0.159103 -0.034925,-0.1047751 -0.034925,-0.2638781 z m 0.40745879,0.1397001 q 0,0.073731 0.003881,0.1164168 0.003881,0.042686 0.0271639,0.062089 0.0232834,0.019403 0.0698501,0.023283 0.0465667,0.00388 0.13193903,0.00388 0.0776113,0 0.11641681,-0.00388 0.042686,-0.00776 0.062089,-0.031044 0.023283,-0.023283 0.027164,-0.073731 0.00388,-0.050447 0.00388,-0.1397001 V 1.7547167 q -0.1629835,0.00388 -0.25223636,0.019403 -0.0853723,0.015522 -0.1358196,0.046567 -0.034925,0.019403 -0.0465667,0.058208 -0.007761,0.038806 -0.007761,0.1125362 z"
       id="path981"
       style="fill:#000000" />
    <path
       d="m 1.8459097,1.9797892 q 0,-0.1008946 0.015522,-0.194028 0.019403,-0.093133 0.1008945,-0.1668641 0.085372,-0.073731 0.256117,-0.1164168 0.1707446,-0.046567 0.4773089,-0.054328 0,-0.1358196 -0.011642,-0.194028 -0.011642,-0.058208 -0.038806,-0.097014 -0.019403,-0.031044 -0.054328,-0.034925 -0.034925,-0.00776 -0.1008946,-0.00776 H 2.0787433 V 0.76517391 h 0.4113394 q 0.1397001,0 0.2522364,0.0155222 0.1164168,0.0155222 0.194028,0.10089456 0.081492,0.0814917 0.1241779,0.26387813 0.042686,0.1823863 0.042686,0.519995 V 2.6744094 H 2.7423191 L 2.7112746,2.5657537 q -0.077611,0.077611 -0.1629835,0.093133 -0.081492,0.015522 -0.2173114,0.015522 -0.1047751,0 -0.194028,-0.023283 Q 2.0476989,2.6278427 1.9817293,2.5696343 1.9196404,2.5114259 1.8808348,2.4105313 1.8459097,2.3057562 1.8459097,2.1466532 Z m 0.4074588,0.1397001 q 0,0.073731 0.00388,0.1164168 0.00388,0.042686 0.027164,0.062089 0.023283,0.019403 0.06985,0.023283 0.046567,0.00388 0.131939,0.00388 0.077611,0 0.1164168,-0.00388 0.042686,-0.00776 0.062089,-0.031044 0.023283,-0.023283 0.027164,-0.073731 0.00388,-0.050447 0.00388,-0.1397001 V 1.7547167 q -0.1629835,0.00388 -0.2522364,0.019403 -0.085372,0.015522 -0.1358196,0.046567 -0.034925,0.019403 -0.046567,0.058208 -0.00776,0.038806 -0.00776,0.1125362 z"
       id="path983"
       style="fill:#000000" />
  </g>
</svg>
