<?xml version="1.0" encoding="UTF-8" standalone="no"?>
<svg
   role="img"
   width="1000mm"
   height="1000mm"
   viewBox="0 0 1000 1000"
   style="max-width:1.6em; height: auto;"
   version="1.1"
   id="svg289"
   sodipodi:docname="d.svg"
   inkscape:version="1.2 (dc2aedaf03, 2022-05-15)"
   xmlns:inkscape="http://www.inkscape.org/namespaces/inkscape"
   xmlns:sodipodi="http://sodipodi.sourceforge.net/DTD/sodipodi-0.dtd"
   xmlns="http://www.w3.org/2000/svg"
   xmlns:svg="http://www.w3.org/2000/svg">
  <defs
     id="defs293" />
  <sodipodi:namedview
     id="namedview291"
     pagecolor="#ffffff"
     bordercolor="#666666"
     borderopacity="1.0"
     inkscape:showpageshadow="2"
     inkscape:pageopacity="0.0"
     inkscape:pagecheckerboard="0"
     inkscape:deskcolor="#d1d1d1"
     inkscape:document-units="mm"
     showgrid="false"
     inkscape:zoom="0.20399375"
     inkscape:cx="1558.8713"
     inkscape:cy="1889.7638"
     inkscape:window-width="2048"
     inkscape:window-height="1099"
     inkscape:window-x="1912"
     inkscape:window-y="-8"
     inkscape:window-maximized="1"
     inkscape:current-layer="svg289" />
  <path
     style="fill:#000000;stroke-width:283.139"
     d="m 368.36417,976.56519 c -43.58357,-15.5443 -97.68292,-56.5712 -123.10313,-93.3792 -46.91329,-67.9251 -55.31969,-98.90045 -55.46692,-204.34988 -0.12458,-89.23689 2.26511,-103.10504 24.34995,-148.50919 64.14512,-131.22923 200.90405,-192.72417 324.23936,-145.79956 74.19656,28.22895 67.11242,44.17534 67.11242,-151.06311 0,-208.480829 1.4157,-212.475919 83.47502,-219.274089 68.84806,-5.7194104 101.66386,8.86225 113.8813,50.5318 6.314,21.54687 8.57911,174.926049 6.73871,456.082999 l -2.83139,423.59563 -21.12216,17.1016 c -30.86498,24.9729 -124.19889,24.0668 -156.74854,-1.4157 l -23.69873,-18.6305 -46.38099,23.1041 c -36.43997,18.1492 -58.94669,22.9626 -105.02189,22.3963 -32.25518,-0.2832 -70.72244,-5.0116 -85.48813,-10.278 z M 559.90199,767.65962 c 56.20024,-47.29269 55.99922,-130.52421 -0.56628,-178.01227 -55.63679,-46.81419 -138.32186,-17.27147 -160.69549,57.38377 -30.23641,100.92203 83.42405,186.01377 161.13153,120.6285 z"
     id="path5558" />
</svg>
