<?xml version="1.0" encoding="UTF-8" standalone="no"?>
<!-- Created with Inkscape (http://www.inkscape.org/) -->

<svg
   width="13"
   height="13"
   viewBox="0 0 3.4395833 3.4395834"
   version="1.1"
   id="svg5"
   inkscape:version="1.2 (dc2aedaf03, 2022-05-15)"
   sodipodi:docname="d_white.svg"
   xmlns:inkscape="http://www.inkscape.org/namespaces/inkscape"
   xmlns:sodipodi="http://sodipodi.sourceforge.net/DTD/sodipodi-0.dtd"
   xmlns="http://www.w3.org/2000/svg"
   xmlns:svg="http://www.w3.org/2000/svg">
  <sodipodi:namedview
     id="namedview7"
     pagecolor="#ffffff"
     bordercolor="#666666"
     borderopacity="1.0"
     inkscape:pageshadow="2"
     inkscape:pageopacity="0.0"
     inkscape:pagecheckerboard="0"
     inkscape:document-units="mm"
     showgrid="false"
     units="px"
     inkscape:zoom="37.287542"
     inkscape:cx="4.8675775"
     inkscape:cy="8.0053547"
     inkscape:window-width="1920"
     inkscape:window-height="1027"
     inkscape:window-x="-8"
     inkscape:window-y="-8"
     inkscape:window-maximized="1"
     inkscape:current-layer="layer1"
     inkscape:showpageshadow="2"
     inkscape:deskcolor="#d1d1d1" />
  <defs
     id="defs2" />
  <g
     inkscape:label="Layer 1"
     inkscape:groupmode="layer"
     id="layer1">
    <path
       style="fill:#ffffff;stroke-width:1"
       d="M 1.25487,3.4031444 C 1.1009416,3.3482761 0.90987369,3.2033413 0.82008855,3.0733399 0.65440194,2.8334402 0.62470684,2.7240382 0.6241894,2.3516122 0.62374744,2.0364403 0.63178138,1.9874565 0.7101666,1.8270998 0.93672336,1.363624 1.4197312,1.1464349 1.8553349,1.3121639 c 0.262044,0.099697 0.2370255,0.1560124 0.2370255,-0.53353526 0,-0.73631923 0.00538,-0.75043106 0.2948227,-0.77443444 C 2.630336,-0.01596998 2.7462444,0.0354594 2.789387,0.18265508 2.811708,0.25880848 2.819724,0.80047254 2.813226,1.7934659 L 2.803436,3.2895415 2.728827,3.3499345 C 2.6198224,3.4381685 2.290183,3.4349325 2.1752153,3.3445045 L 2.0915306,3.2786716 1.9277232,3.3602998 C 1.7990174,3.4244379 1.7195338,3.441395 1.5567982,3.4394347 1.4428833,3.4380622 1.3070155,3.4217317 1.25487,3.4031442 Z M 1.9313478,2.6653172 C 2.1298447,2.4982931 2.1291253,2.2043259 1.9298093,2.0366123 1.7333148,1.871273 1.4412773,1.9755568 1.3622648,2.2392769 1.2554713,2.595722 1.6569008,2.8962495 1.9313482,2.6653172 Z"
       id="path5558" />
  </g>
</svg>
