<?xml version="1.0" encoding="UTF-8" standalone="no"?>
<!-- Created with Inkscape (http://www.inkscape.org/) -->

<svg
   width="13"
   height="13"
   viewBox="0 0 3.4395833 3.4395834"
   version="1.1"
   id="svg5"
   inkscape:version="1.2 (dc2aedaf03, 2022-05-15)"
   sodipodi:docname="titlecase_white.svg"
   xmlns:inkscape="http://www.inkscape.org/namespaces/inkscape"
   xmlns:sodipodi="http://sodipodi.sourceforge.net/DTD/sodipodi-0.dtd"
   xmlns="http://www.w3.org/2000/svg"
   xmlns:svg="http://www.w3.org/2000/svg">
  <sodipodi:namedview
     id="namedview7"
     pagecolor="#ffffff"
     bordercolor="#666666"
     borderopacity="1.0"
     inkscape:pageshadow="2"
     inkscape:pageopacity="0.0"
     inkscape:pagecheckerboard="0"
     inkscape:document-units="mm"
     showgrid="false"
     units="px"
     inkscape:zoom="37.287542"
     inkscape:cx="5.8196381"
     inkscape:cy="5.243038"
     inkscape:window-width="1920"
     inkscape:window-height="1027"
     inkscape:window-x="-8"
     inkscape:window-y="-8"
     inkscape:window-maximized="1"
     inkscape:current-layer="layer1"
     inkscape:snap-page="true"
     inkscape:snap-smooth-nodes="true"
     inkscape:snap-text-baseline="true"
     inkscape:snap-bbox="true"
     inkscape:bbox-paths="true"
     inkscape:bbox-nodes="true"
     inkscape:showpageshadow="2"
     inkscape:deskcolor="#d1d1d1" />
  <defs
     id="defs2" />
  <g
     inkscape:label="Layer 1"
     inkscape:groupmode="layer"
     id="layer1">
    <g
       aria-label="Ab"
       id="text12343"
       style="font-weight:600;font-size:3.88056px;line-height:145%;font-family:Probeta;-inkscape-font-specification:'Probeta, Semi-Bold';letter-spacing:0px;word-spacing:0px;stroke:#ffffff;stroke-width:0.065;fill:#ffffff">
      <path
         d="M 0.16562943,3.0508237 0.72443006,0.41980406 H 1.2250223 L 1.7799424,3.0508237 H 1.3414391 L 1.2289028,2.4648591 H 0.71666894 L 0.6041327,3.0508237 Z M 0.79039958,2.0845643 H 1.1590528 l -0.1513419,-0.7722315 -0.034925,-0.263878 -0.034925,0.263878 z"
         id="path873"
         style="stroke:#ffffff;fill:#ffffff" />
      <path
         d="M 1.9778469,0.38875958 H 2.3853057 V 1.2424828 q 0.06597,-0.077611 0.1668641,-0.089253 0.1008945,-0.011642 0.2056696,-0.011642 h 0.050447 q 0.1047751,0 0.1901474,0.00776 0.089253,0.00776 0.1474613,0.054328 0.062089,0.042686 0.093133,0.1397001 0.034925,0.097014 0.034925,0.2794003 v 0.9468567 q 0,0.1785057 -0.034925,0.2794003 -0.031045,0.097014 -0.093133,0.1435807 -0.058208,0.042686 -0.1474613,0.050447 -0.085372,0.00776 -0.1901474,0.00776 h -0.050447 q -0.1047751,0 -0.2134308,-0.011642 Q 2.4396335,3.0236598 2.3697834,2.942168 L 2.338739,3.0508237 H 1.9778469 Z M 2.3853057,2.4182924 q 0,0.1008946 0.00388,0.159103 0.00388,0.054328 0.019403,0.081492 0.019403,0.027164 0.054328,0.034925 0.034925,0.00388 0.097014,0.00388 h 0.131939 q 0.062089,0 0.097014,-0.00388 0.034925,-0.00776 0.050447,-0.034925 0.019403,-0.027164 0.023283,-0.081492 0.00388,-0.058208 0.00388,-0.159103 V 1.7741195 q 0,-0.1008946 -0.00388,-0.1552224 -0.00388,-0.058208 -0.023283,-0.085372 -0.015522,-0.027164 -0.050447,-0.031044 -0.034925,-0.00776 -0.097014,-0.00776 h -0.131939 q -0.062089,0 -0.097014,0.00776 -0.034925,0.00388 -0.054328,0.031044 -0.015522,0.027164 -0.019403,0.085372 -0.00388,0.054328 -0.00388,0.1552224 z"
         id="path875"
         style="stroke:#ffffff;fill:#ffffff" />
    </g>
  </g>
</svg>
