<?xml version="1.0" encoding="UTF-8"?>
<svg version="1.1" viewBox="0 0 640 512" xmlns="http://www.w3.org/2000/svg"><path d="M594.53 508.63L6.18 53.9c-6.97-5.42-8.23-15.47-2.81-22.45L23.01 6.18C28.43-.8 38.49-2.06 45.47 3.37L633.82 458.1c6.97 5.42 8.23 15.47 2.81 22.45l-19.64 25.27c-5.42 6.98-15.48 8.23-22.46 2.81z" fill="#f0f0f0"/><path d="m262.8 0a23.72 23.72 0 00-21.4 13.301l-9.4004 18.699h-120a16 16 0 00-16 16v32a16 16 0 0016 16h416a16 16 0 0016-16v-32a16 16 0 00-16-16h-120l-9.4004-18.699a24 24 0 00-21.5-13.301h-114.3zm-134.8 128 1.2578 20.129 363.9 281.25 18.846-301.38h-384zm6.5742 105.14 14.625 233.86a48 48 0 0047.9 45h245.8a48 48 0 0033.678-14.533l-342-264.33z" fill="#f0f0f0"/></svg>
